<svg width="194" height="42" viewBox="0 0 194 42" fill="none" xmlns="http://www.w3.org/2000/svg">
<path d="M93.9186 39.9984C93.9186 36.3674 93.9276 32.8724 93.9067 29.3773C93.9067 28.9427 94.154 28.7801 94.4401 28.582C97.8342 26.2224 101.225 23.8628 104.617 21.5002C104.858 21.3317 105.096 21.1602 105.388 20.9562C102.906 19.2294 100.468 17.5351 98.0339 15.8408C96.8151 14.9922 95.5963 14.1436 94.3805 13.2949C94.1391 13.1264 93.9097 12.9874 93.9127 12.6149C93.9276 9.09618 93.9216 5.57751 93.9216 2.06474C94.2226 1.96717 94.3656 2.19189 94.5325 2.30721C100.394 6.35812 106.25 10.4209 112.117 14.4688C112.484 14.7201 112.635 14.9804 112.635 15.4298C112.618 19.1229 112.621 22.819 112.635 26.5121C112.635 26.9202 112.525 27.1833 112.174 27.4258C106.264 31.4974 100.367 35.5868 94.4669 39.6702C94.3298 39.7648 94.1838 39.8447 93.9276 40.0014L93.9186 39.9984Z" fill="#F5C443"/>
<path d="M46.4753 11.6216C46.4753 8.6677 46.4932 5.71378 46.4604 2.75987C46.4545 2.13006 46.6511 1.997 47.2561 1.99996C51.2998 2.02657 55.3436 1.99996 59.3903 2.02065C60.7581 2.02952 62.0871 2.23946 63.3536 2.84266C65.3054 3.77112 66.2888 5.37966 66.6255 7.37555C67.0606 9.95394 66.852 12.5737 66.7537 15.1669C66.6941 16.7429 66.0981 18.2391 64.9121 19.3923C63.8661 20.4094 62.5639 20.918 61.1455 21.196C60.3111 21.3586 59.4797 21.2906 58.6453 21.2935C54.8727 21.3024 51.1031 21.2817 47.3306 21.3113C46.675 21.3172 46.4455 21.1841 46.4575 20.4774C46.5022 17.5235 46.4753 14.5696 46.4753 11.6157V11.6216ZM51.27 19.9511C51.866 19.135 52.3607 18.5229 52.7719 17.8636C52.9894 17.5176 53.2308 17.4378 53.6063 17.4407C55.2691 17.4555 56.9319 17.4762 58.5917 17.4407C60.6687 17.3934 61.807 16.2432 61.8815 14.3952C61.956 12.5767 61.956 10.7493 61.8815 8.93382C61.81 7.20405 60.8862 6.15436 59.1638 5.97695C56.768 5.73153 54.3602 5.94146 51.9584 5.86163C51.3982 5.84389 51.2551 6.0006 51.2581 6.55649C51.2819 10.7907 51.273 15.022 51.273 19.2562C51.273 19.4189 51.273 19.5845 51.273 19.9541L51.27 19.9511Z" fill="#0A04F3"/>
<path d="M32.5919 21.3348C30.5834 21.3348 28.569 21.4206 26.5665 21.3111C24.6534 21.2077 22.6866 19.9037 22.5734 17.6505C22.4303 14.7765 22.5078 11.8935 22.4929 9.01353C22.487 8.00524 22.5197 6.99399 22.481 5.98569C22.4601 5.48007 22.6449 5.36475 23.1157 5.37954C24.108 5.41206 25.1003 5.36179 26.0927 5.40023C26.6439 5.42093 27.0224 5.23465 27.374 4.82364C28.0445 4.03416 28.7716 3.29198 29.454 2.50841C29.7222 2.2009 30.0232 2.06784 30.4225 2.06784C33.1759 2.07967 35.9323 2.06193 38.6858 2.10037C40.1728 2.12106 41.3975 2.70357 42.2438 3.98094C42.7504 4.74381 42.9232 5.60721 42.9322 6.47653C42.9679 9.9479 43.0246 13.4222 42.9232 16.8906C42.8458 19.611 41.2843 21.252 38.3282 21.2993C36.4181 21.3318 34.5079 21.3052 32.5948 21.3052C32.5948 21.3171 32.5948 21.3259 32.5948 21.3378L32.5919 21.3348ZM38.0689 11.6806C38.0689 10.4003 38.0689 9.11998 38.0689 7.83965C38.0689 6.40853 37.6041 5.93247 36.1678 5.92656C33.9358 5.91769 31.7009 5.9236 29.4689 5.92656C28.5332 5.92656 27.3323 7.10635 27.3293 8.03776C27.3234 10.5748 27.3263 13.1088 27.3293 15.6458C27.3293 16.799 27.8061 17.4022 28.9385 17.4229C31.4684 17.4731 34.0014 17.4702 36.5313 17.4229C37.5922 17.4022 38.066 16.8078 38.0719 15.7463C38.0779 14.3921 38.0719 13.0378 38.0719 11.6836L38.0689 11.6806Z" fill="#0A04F3"/>
<path d="M88.5429 2.07372C87.8873 3.3777 87.0052 4.49539 86.2573 5.69293C86.0785 5.97974 85.7596 5.86147 85.5003 5.86442C82.7201 5.87034 79.9428 5.86738 77.1625 5.87034C75.8573 5.87034 74.6654 7.06787 74.6654 8.37185C74.6654 9.40675 74.6773 10.4387 74.6594 11.4736C74.6535 11.8136 74.7428 11.9674 75.1124 11.9467C75.5832 11.9201 76.054 11.9319 76.5278 11.9437C76.9569 11.9556 77.2728 11.7841 77.5559 11.4618C78.2681 10.6457 79.0131 9.86211 79.7253 9.04602C79.9905 8.74146 80.2825 8.60544 80.6908 8.6084C82.3029 8.62318 83.918 8.63501 85.5302 8.60249C86.0159 8.59362 86.1112 8.76511 86.0963 9.19682C86.0665 10.0809 86.0636 10.9709 86.0963 11.855C86.1142 12.3281 85.9831 12.4819 85.4795 12.476C83.5932 12.4435 81.7069 12.476 79.8206 12.4553C79.3319 12.4494 78.9773 12.5913 78.6585 12.9668C78.0506 13.6824 77.386 14.3477 76.7781 15.0632C76.3222 15.5984 75.8275 15.9769 75.0766 15.8675C74.6683 15.8084 74.6207 16.0094 74.719 16.3436C74.9306 17.0562 75.5385 17.4406 76.5397 17.4435C78.8969 17.4524 81.254 17.4435 83.6111 17.4435C84.8507 17.4435 86.0934 17.4613 87.333 17.4347C87.8008 17.4228 87.929 17.5825 87.9111 18.026C87.8813 18.8865 87.8664 19.7499 87.9141 20.6103C87.9439 21.1633 87.777 21.317 87.2138 21.3111C83.0956 21.2845 78.9743 21.2668 74.8561 21.3022C72.6033 21.32 70.6425 19.9953 70.0405 18.0438C69.9064 17.6062 69.7872 17.1833 69.7872 16.7191C69.7932 13.1502 69.7962 9.57825 69.7694 6.00931C69.7664 5.49777 69.8886 5.32923 70.422 5.35289C71.4381 5.39724 72.4573 5.34697 73.4734 5.37358C73.9621 5.38541 74.3137 5.21096 74.6237 4.85022C75.3031 4.06665 76.0123 3.30969 76.6917 2.52316C76.9897 2.18017 77.3324 2.00867 77.7883 2.00867C81.2867 2.01458 84.7852 2.00867 88.2866 2.01458C88.3521 2.01458 88.4177 2.04415 88.5369 2.07076L88.5429 2.07372Z" fill="#0A04F3"/>
<path d="M12.8708 21.3289C10.7848 21.3289 8.70189 21.3437 6.61594 21.326C4.47934 21.3053 2.63179 19.7026 2.13712 17.6772C2.02091 17.1982 2.01495 16.7221 2.01495 16.2431C2.01197 12.8427 2.02687 9.44525 2.00005 6.04781C1.99707 5.49487 2.13116 5.32633 2.69437 5.3559C3.6837 5.40617 4.67899 5.35294 5.67131 5.3766C6.18385 5.38843 6.54442 5.21101 6.8752 4.81775C7.56952 3.99574 8.31748 3.21513 9.03564 2.4079C9.30681 2.10334 9.6495 2.01464 10.0339 2.01464C13.4578 2.01464 16.8847 2.02351 20.3087 2.00577C20.8778 2.00577 20.8033 2.19205 20.5679 2.54096C19.9392 3.47829 19.3015 4.41266 18.7144 5.3766C18.473 5.76986 18.1929 5.87927 17.7519 5.87631C14.9478 5.85857 12.1437 5.86448 9.33959 5.86744C8.07312 5.86744 6.89307 7.06201 6.89307 8.32755C6.89307 10.764 6.89307 13.2034 6.89307 15.6399C6.89307 16.8818 7.50098 17.4909 8.7436 17.4909C12.2927 17.4939 15.8418 17.5086 19.3909 17.4761C20.0226 17.4702 20.1924 17.6506 20.1507 18.2538C20.0941 19.0639 20.106 19.88 20.1507 20.6902C20.1776 21.1988 20.0375 21.3585 19.5011 21.3526C17.293 21.323 15.0849 21.3407 12.8768 21.3407C12.8768 21.3348 12.8768 21.3289 12.8768 21.323L12.8708 21.3289Z" fill="#0A04F3"/>
<path d="M47.2799 28.1502C47.5958 27.2513 47.8878 26.4145 48.1888 25.5836C48.2871 25.3145 48.5344 25.35 48.755 25.35C51.6336 25.35 54.5122 25.3027 57.3908 25.3648C59.8134 25.418 60.9726 26.7486 60.8534 28.9603C60.8058 29.8326 60.9786 30.7108 60.6925 31.5831C60.2694 32.8693 59.1728 33.7327 57.7841 33.7416C55.6743 33.7534 53.5646 33.7475 51.4548 33.7505C50.2777 33.7505 49.8069 34.2206 49.8039 35.3797C49.8039 36.1584 50.1853 36.5477 50.9482 36.5477C53.9013 36.5477 56.8544 36.5477 59.8075 36.5477C60.4949 36.5477 60.8385 36.9005 60.8385 37.6062C60.8385 37.9758 60.8028 38.3484 60.8475 38.7121C60.91 39.2414 60.7015 39.3597 60.1889 39.3567C56.2673 39.336 52.3458 39.3449 48.4272 39.3449C47.2451 39.3449 46.6541 38.7653 46.6541 37.6062C46.6541 36.4501 46.6511 35.291 46.6511 34.1349C46.6511 32.2809 47.9981 30.9444 49.8605 30.9444C51.9465 30.9444 54.0294 30.9415 56.1154 30.9444C56.6517 30.9444 57.2001 30.9089 57.4325 30.356C57.6649 29.806 57.6828 29.191 57.3729 28.6587C57.0391 28.0851 56.4074 28.1531 55.8591 28.1502C53.204 28.1324 50.5489 28.1413 47.8938 28.1413H47.2829L47.2799 28.1502Z" fill="#0A04F3"/>
<path d="M73.4883 39.3543C73.8012 38.4584 74.1111 37.6216 74.3793 36.7729C74.5015 36.3885 74.7816 36.56 74.9842 36.56C77.6393 36.5482 80.2974 36.5512 82.9525 36.5512C84.1832 36.5512 84.8328 35.4305 84.2428 34.3453C83.9061 33.7244 83.2863 33.7865 82.7528 33.7776C80.2706 33.7481 77.7883 33.754 75.306 33.7717C74.7667 33.7747 74.5223 33.7185 74.7965 33.0916C75.0915 32.4204 75.0647 31.4269 75.5504 31.0662C76.0331 30.7084 76.9778 30.9538 77.7198 30.9509C79.1352 30.945 80.5507 30.9568 81.9662 30.9449C82.9316 30.939 83.1879 30.67 83.176 29.7238C83.1611 28.2897 83.0151 28.1507 81.543 28.1478C79.4064 28.1478 77.2728 28.1389 75.1362 28.1537C74.6653 28.1566 74.4419 28.1271 74.716 27.5771C74.9991 27.0153 75.2137 26.415 75.4014 25.8148C75.5325 25.3949 75.7858 25.3358 76.1762 25.3387C78.4349 25.3535 80.6937 25.3387 82.9525 25.3506C83.6617 25.3535 84.368 25.4629 85.0146 25.7616C86.0963 26.2613 86.5195 27.237 86.5612 28.3163C86.6029 29.3837 86.8026 30.4866 86.3615 31.5245C86.2513 31.7847 86.4241 31.7995 86.5522 31.903C87.3211 32.5328 87.6906 33.3578 87.6518 34.3365C87.6161 35.1851 87.7263 36.0308 87.5237 36.8912C87.178 38.3519 86.2185 39.3188 84.666 39.3365C80.9679 39.3809 77.2698 39.3513 73.4883 39.3513V39.3543Z" fill="#0A04F3"/>
<path d="M71.5215 32.3465C71.5215 34.4636 71.5037 36.5837 71.5335 38.7008C71.5394 39.2153 71.4023 39.3957 70.8719 39.3602C70.2044 39.3159 69.528 39.3129 68.8635 39.3602C68.3092 39.4016 68.2198 39.1739 68.2228 38.6861C68.2406 35.3862 68.2228 32.0863 68.2436 28.7835C68.2466 28.2808 68.1304 28.13 67.597 28.1123C66.8014 28.0827 66.1756 28.2128 65.7077 28.9373C65.3918 29.4251 64.9329 29.8214 64.5336 30.2531C64.3459 30.4571 62.8977 30.6227 62.704 30.46C62.6563 30.4186 62.6205 30.3359 62.6205 30.2738C62.6146 29.4843 62.6175 28.6977 62.6205 27.9083C62.6205 27.7575 62.7099 27.6954 62.853 27.6954C62.9275 27.6954 63.0049 27.6776 63.0765 27.6954C64.8078 28.1507 65.7584 27.0389 66.6643 25.9005C66.9861 25.4925 67.3139 25.3062 67.8384 25.324C68.8307 25.3594 69.826 25.3772 70.8153 25.318C71.4381 25.2826 71.5424 25.5132 71.5364 26.0661C71.5066 28.1596 71.5245 30.2531 71.5245 32.3465H71.5215Z" fill="#0A04F3"/>
<path d="M191.991 30.8116C191.991 31.6957 192.006 32.5828 191.988 33.4669C191.967 34.5905 191.335 35.2439 190.203 35.2646C188.74 35.2942 187.279 35.2735 185.816 35.2765C185.444 35.2765 185.238 35.2824 185.542 34.8034C185.885 34.2652 186.216 33.9577 186.913 34.0228C187.747 34.0996 188.597 34.0228 189.44 34.0464C190.131 34.0671 190.468 33.7832 190.391 33.0943C190.346 32.6951 190.62 32.1185 190.233 31.9352C189.705 31.6898 189.565 32.3699 189.279 32.6567C188.945 32.9908 188.617 33.1919 188.12 33.1475C187.506 33.0913 186.886 33.1771 186.269 33.047C185.554 32.8932 184.961 32.2545 184.946 31.5331C184.931 30.7968 184.946 30.0576 184.937 29.3213C184.922 28.1386 185.754 27.5768 186.651 27.5561C188.287 27.5176 189.923 27.5561 191.559 27.5354C191.94 27.5295 192.006 27.6832 192 28.0114C191.982 28.9458 191.994 29.8802 191.997 30.8145L191.991 30.8116ZM190.438 28.112C190.388 28.0469 190.337 27.9819 190.289 27.9139C190.054 28.9902 189.294 28.7684 188.626 28.7773C188.254 28.7832 187.884 28.7861 187.512 28.7773C186.871 28.7625 186.433 28.9429 186.561 29.7028C186.573 29.7737 186.561 29.8506 186.561 29.9245C186.561 31.2039 187.214 31.8376 188.519 31.8258C188.758 31.8258 188.981 31.8554 189.207 31.672C190.426 30.6963 190.435 30.7022 190.435 29.07V28.1149L190.438 28.112Z" fill="#0A04F3"/>
<path d="M156.813 21.6335C156.822 22.2781 157.221 22.2574 157.591 22.2604C158.881 22.2663 160.168 22.2929 161.455 22.2485C162.037 22.2278 162.069 22.4939 162.087 22.9493C162.108 23.4668 161.891 23.5525 161.435 23.5436C160.046 23.517 158.657 23.5495 157.272 23.5289C155.788 23.5082 155.162 22.8606 155.159 21.3881C155.159 20.7494 155.18 20.1078 155.153 19.4691C155.135 19.0492 155.224 18.786 155.713 18.8688C156.431 18.993 156.953 18.718 157.349 18.1326C157.489 17.9226 157.701 17.7984 157.978 17.8044C159.012 17.828 160.049 17.7363 161.08 17.9226C162.048 18.0971 162.618 19.3744 162.203 20.4626C161.897 21.2668 161.381 21.6128 160.407 21.6246C159.218 21.6365 158.032 21.6276 156.816 21.6276L156.813 21.6335ZM156.783 20.9682C157.188 20.1994 157.88 20.4064 158.49 20.3975C158.985 20.3887 159.483 20.4034 159.98 20.3916C160.46 20.3798 160.669 20.1639 160.66 19.6494C160.648 19.1409 160.359 19.0935 159.986 19.0906C159.218 19.0876 158.449 19.0788 157.68 19.0906C157.117 19.1024 156.84 19.4425 156.792 19.9688C156.762 20.2999 156.786 20.6341 156.786 20.9652L156.783 20.9682Z" fill="#0A04F3"/>
<path d="M145.942 33.1978C145.099 33.1978 144.252 33.2392 143.415 33.186C142.393 33.121 141.871 32.5532 141.839 31.5331C141.815 30.6963 141.848 29.8595 141.827 29.0227C141.818 28.665 141.94 28.5142 142.292 28.5762C143.022 28.7034 143.585 28.4609 143.999 27.8489C144.106 27.6892 144.258 27.5413 144.482 27.5443C145.611 27.568 146.761 27.3965 147.864 27.7158C148.478 27.8932 148.847 28.3456 148.898 29.0493C149.035 31.0186 148.135 31.406 146.559 31.3646C145.739 31.3439 144.92 31.3468 144.103 31.3705C143.898 31.3764 143.525 31.1842 143.507 31.5627C143.49 31.9412 143.838 31.9826 144.157 31.9796C144.851 31.9737 145.546 31.9796 146.243 31.9796C146.839 31.9796 147.435 31.9973 148.031 31.9737C148.475 31.9559 148.752 31.9707 148.749 32.568C148.746 33.1417 148.567 33.2836 148.028 33.2511C147.337 33.2097 146.639 33.2392 145.945 33.2392C145.945 33.2244 145.945 33.2097 145.945 33.1949L145.942 33.1978ZM145.462 28.7773C145.164 28.7773 144.866 28.801 144.571 28.7714C144.166 28.733 143.886 28.8838 143.606 29.1765C143.192 29.6082 143.236 30.2232 143.442 30.5219C143.704 30.9003 143.722 30.1759 143.996 30.1463C144.166 30.1286 144.336 30.0902 144.506 30.0902C145.2 30.0842 145.894 30.0872 146.586 30.0872C147.036 30.0872 147.387 29.9453 147.372 29.4308C147.357 28.9459 147.03 28.7744 146.58 28.7803C146.207 28.7832 145.838 28.7803 145.465 28.7803L145.462 28.7773Z" fill="#0A04F3"/>
<path d="M155.245 29.4544C155.195 28.863 154.831 28.7832 154.411 28.7832C153.344 28.7832 152.277 28.7891 151.208 28.7772C150.972 28.7772 150.722 28.8512 150.498 28.7033C150.966 27.5472 150.972 27.5117 152.122 27.5531C153.279 27.5945 154.441 27.3905 155.591 27.6832C156.452 27.902 156.89 28.3219 156.926 29.2237C156.974 30.4301 156.926 31.6365 156.944 32.8429C156.95 33.1859 156.792 33.2333 156.497 33.248C155.427 33.3042 155.43 33.316 155.32 32.361C155.305 32.225 155.359 32.0328 155.153 32.0121C154.977 31.9943 154.786 31.9174 154.646 32.1658C153.758 33.7418 152.268 33.3427 150.96 33.1031C150.039 32.9346 149.61 32.154 149.768 30.8825C149.867 30.099 150.57 29.4721 151.377 29.4603C152.659 29.4425 153.94 29.4544 155.245 29.4544ZM155.165 29.8151C154.879 30.7081 154.22 30.7258 153.502 30.6756C153.034 30.643 152.56 30.6726 152.09 30.6726C151.634 30.6726 151.425 30.8914 151.398 31.3468C151.365 31.8701 151.693 31.9618 152.093 31.9795C152.489 31.9973 152.897 31.9234 153.279 31.9973C154.268 32.1836 154.42 31.0215 155.213 30.85C155.379 30.8145 155.284 30.2232 155.165 29.8151Z" fill="#0A04F3"/>
<path d="M137.643 13.7979C136.898 13.7979 136.156 13.8127 135.411 13.795C134.368 13.7684 133.692 13.0706 133.68 12.0238C133.671 11.261 133.701 10.4981 133.668 9.73521C133.65 9.3242 133.766 9.14088 134.195 9.20889C134.91 9.3242 135.447 9.01669 135.81 8.4401C135.968 8.18877 136.159 8.12076 136.412 8.12076C137.33 8.12371 138.248 8.14146 139.163 8.1385C140.039 8.1385 140.861 8.70622 140.811 10.0546C140.76 11.4058 140.224 11.8287 139.109 11.8908C138.072 11.9469 137.026 11.8937 135.986 11.9203C135.766 11.9262 135.366 11.7163 135.351 12.1362C135.339 12.5117 135.73 12.5561 136.022 12.562C137.014 12.5827 138.007 12.5708 138.996 12.5738C139.27 12.5738 139.541 12.5738 139.815 12.5738C140.468 12.5738 140.778 13.0499 140.53 13.6442C140.432 13.8778 140.25 13.8009 140.095 13.8039C139.276 13.8127 138.459 13.8068 137.64 13.8068V13.8009L137.643 13.7979ZM137.294 9.36264C137.071 9.36264 136.841 9.39813 136.627 9.35673C135.667 9.17636 135.009 9.92149 135.176 10.9239C135.193 11.0362 135.125 11.19 135.265 11.2462C135.447 11.3201 135.551 11.1722 135.596 11.0392C135.718 10.6666 136.016 10.6785 136.317 10.6785C137.011 10.6785 137.706 10.6844 138.403 10.6785C138.835 10.6725 139.187 10.572 139.198 10.0279C139.21 9.46613 138.781 9.42769 138.412 9.37447C138.048 9.32125 137.67 9.36264 137.297 9.36264H137.294Z" fill="#0A04F3"/>
<path d="M121.948 33.2749C121.45 33.2749 120.955 33.2542 120.458 33.2778C119.221 33.337 118.515 32.4055 118.53 31.4653C118.542 30.7763 118.518 30.0874 118.536 29.3984C118.563 28.331 119.105 27.6302 120.157 27.5829C121.531 27.5208 122.919 27.3996 124.293 27.6716C125.193 27.852 125.652 28.3517 125.688 29.2624C125.714 29.975 125.705 30.6906 125.693 31.4032C125.673 32.5209 124.957 33.2335 123.813 33.2689C123.193 33.2896 122.573 33.2719 121.954 33.2719L121.948 33.2749ZM122.064 32.0004C122.46 32.0004 122.854 31.9857 123.25 32.0034C123.843 32.03 124.12 31.7698 124.099 31.1755C124.081 30.661 124.084 30.1465 124.099 29.632C124.117 29.0347 123.807 28.7834 123.241 28.7834C122.648 28.7834 122.055 28.7834 121.462 28.7834C120.19 28.7834 120.148 28.8277 120.145 30.108C120.145 32.1808 119.978 32.0034 122.061 32.0034L122.064 32.0004Z" fill="#0A04F3"/>
<path d="M125.303 9.82981C125.303 8.69733 125.333 7.56485 125.291 6.43237C125.267 5.77298 125.714 5.94744 126.03 5.97405C126.343 6.00066 126.882 5.68132 126.85 6.42054C126.814 7.23072 126.835 8.04386 126.85 8.857C126.853 9.02258 126.716 9.27687 127.014 9.34488C127.222 9.39219 127.437 9.34193 127.538 9.15269C128.381 7.58554 129.833 8.14439 131.09 8.20057C131.847 8.2331 132.44 9.00189 132.461 9.77363C132.494 10.98 132.461 12.1864 132.476 13.3928C132.479 13.7181 132.363 13.8364 132.047 13.8098C131.826 13.792 131.597 13.7861 131.376 13.8098C130.962 13.86 130.822 13.7151 130.834 13.2893C130.864 12.2574 130.846 11.2225 130.843 10.1876C130.843 9.97174 130.881 9.7411 130.688 9.56665C130.405 9.3094 128.432 9.26209 128.11 9.51047C127.717 9.81502 127.535 10.3561 126.987 10.5099C126.921 10.5276 126.915 10.8233 126.912 10.9919C126.903 11.7547 126.882 12.5176 126.912 13.2805C126.93 13.7033 126.79 13.863 126.37 13.8098C126.173 13.7861 125.971 13.7831 125.777 13.8098C125.36 13.8659 125.288 13.6649 125.294 13.3012C125.312 12.145 125.3 10.9859 125.3 9.82981H125.303Z" fill="#0A04F3"/>
<path d="M121.051 18.1536C121.766 17.7573 122.809 17.6775 124.54 17.8697C124.037 19.0909 124.037 19.082 122.696 19.0909C120.815 19.1027 121.039 18.8691 121.027 20.732C121.021 21.4948 121.003 22.2577 121.036 23.0206C121.054 23.4552 120.896 23.5587 120.485 23.5469C119.147 23.5114 119.43 23.6533 119.406 22.512C119.391 21.8467 119.373 21.1814 119.412 20.5191C119.442 20.0341 119.343 19.7917 118.783 19.8508C118.44 19.8863 117.999 20.04 118.008 19.3481C118.017 18.7479 118.202 18.4611 118.792 18.535C119.319 18.6 119.4 18.3635 119.382 17.9141C119.367 17.5297 119.293 17.1334 119.439 16.752C119.754 15.933 120.255 15.5722 121.155 15.5663C122.568 15.5545 123.98 15.5633 125.398 15.5633C125.032 16.6574 124.853 16.7904 123.762 16.7904C123.268 16.7904 122.77 16.7904 122.275 16.7904C121.176 16.7964 121 16.9797 121.051 18.1565V18.1536Z" fill="#0A04F3"/>
<path d="M132.449 20.7346C132.449 21.4975 132.434 22.2604 132.455 23.0232C132.464 23.3899 132.371 23.5525 131.96 23.5466C131.343 23.5348 130.661 23.6826 130.861 22.6714C130.932 22.3077 130.625 22.3609 130.42 22.3845C130.315 22.3964 130.187 22.491 130.134 22.5827C129.329 23.9576 128.03 23.5673 126.847 23.4461C125.971 23.3544 125.41 22.7275 125.381 21.8582C125.339 20.6548 125.375 19.4454 125.363 18.239C125.36 17.9256 125.47 17.8251 125.792 17.8014C126.99 17.7156 126.987 17.7009 126.987 18.8659C126.987 19.7766 126.999 20.6873 126.981 21.598C126.972 22.0711 127.151 22.2663 127.642 22.2249C128.086 22.1864 128.536 22.1983 128.98 22.2249C129.406 22.2485 129.636 21.9765 129.964 21.7813C131.075 21.1249 130.798 20.1285 130.825 19.1852C130.828 19.0374 130.825 18.8895 130.825 18.7417C130.825 17.8753 131.376 17.5205 132.223 17.8162C132.494 17.9108 132.44 18.1119 132.44 18.2952C132.446 19.1083 132.44 19.9185 132.44 20.7317L132.449 20.7346Z" fill="#0A04F3"/>
<path d="M133.715 25.3121C133.411 26.2524 132.884 26.6811 131.904 26.5274C131.346 26.4387 130.762 26.551 130.196 26.5008C129.672 26.4564 129.436 26.7462 129.26 27.1395C129.171 27.3405 129.126 27.6096 129.275 27.7693C129.448 27.9556 129.615 27.719 129.782 27.6362C130.178 27.4351 130.604 27.5593 131.016 27.5446C131.609 27.5209 132.205 27.5386 132.804 27.5386C132.595 28.5055 132.27 28.7805 131.325 28.7776C128.953 28.7746 129.374 28.6593 129.341 30.7409C129.332 31.3796 129.32 32.0213 129.347 32.6599C129.362 33.0355 129.26 33.2129 128.855 33.1656C128.635 33.1389 128.405 33.136 128.188 33.1656C127.77 33.2217 127.699 33.0236 127.708 32.6599C127.732 31.8231 127.69 30.9863 127.726 30.1525C127.747 29.706 127.627 29.5109 127.157 29.5848C126.665 29.6617 126.403 29.5611 126.4 28.9432C126.4 28.3104 126.692 28.2424 127.166 28.3133C127.657 28.3873 127.732 28.1596 127.726 27.7308C127.72 27.1779 127.61 26.6161 127.922 26.0779C128.191 25.6167 128.536 25.321 129.067 25.3151C130.601 25.3003 132.136 25.3092 133.718 25.3092L133.715 25.3121Z" fill="#0A04F3"/>
<path d="M176.567 30.2943C176.567 29.555 176.614 28.8129 176.552 28.0796C176.501 27.4823 176.841 27.4852 177.225 27.5503C177.553 27.6065 178.146 27.2398 178.089 28.0323C178.074 28.2511 177.934 28.5615 178.203 28.6976C178.527 28.8602 178.802 28.6177 178.951 28.3812C179.728 27.1304 180.956 27.4734 182.02 27.6183C183.367 27.8016 183.733 28.39 183.733 29.765C183.733 30.726 183.712 31.684 183.742 32.645C183.754 33.0648 183.626 33.2304 183.206 33.1713C183.06 33.1506 182.905 33.1506 182.759 33.1713C182.258 33.2482 182.065 33.0885 182.091 32.5474C182.139 31.5657 182.082 30.5781 182.112 29.5964C182.13 29.0169 181.871 28.7863 181.326 28.7863C180.902 28.7863 180.482 28.801 180.062 28.7803C179.639 28.7626 179.401 29.0169 179.07 29.2357C178.074 29.8951 178.122 30.8117 178.185 31.7816C178.197 31.9531 178.161 32.1305 178.191 32.2961C178.31 32.9939 178.066 33.2275 177.326 33.195C176.733 33.1713 176.495 33.0767 176.555 32.435C176.62 31.7283 176.57 31.0098 176.57 30.2943H176.567Z" fill="#0A04F3"/>
<path d="M147.378 20.6959C147.378 21.4351 147.343 22.1743 147.39 22.9106C147.426 23.4517 147.212 23.6557 146.723 23.5256C146.392 23.4369 145.835 23.91 145.736 23.159C145.704 22.8988 145.936 22.5114 145.564 22.3961C145.167 22.2719 144.965 22.6267 144.78 22.9195C144.476 23.4044 144.062 23.6262 143.472 23.5434C142.751 23.4399 142 23.7267 141.296 23.3541C140.68 23.0289 140.325 22.5498 140.325 21.8402C140.325 20.6841 140.337 19.5279 140.316 18.3718C140.31 17.9992 140.456 17.9371 140.793 17.9283C141.919 17.8928 141.919 17.881 141.919 18.975C141.919 19.7881 141.934 20.5983 141.913 21.4115C141.898 21.991 142.089 22.2956 142.733 22.2305C143.126 22.1921 143.531 22.1832 143.922 22.2305C144.416 22.2926 144.628 21.9555 144.971 21.719C146.18 20.8792 145.716 19.6728 145.719 18.6054C145.722 17.8662 146.085 17.9401 146.574 17.9223C147.107 17.9046 147.468 17.9223 147.393 18.632C147.319 19.3121 147.378 20.0069 147.378 20.6959Z" fill="#0A04F3"/>
<path d="M165.076 30.3147C165.076 29.5755 165.124 28.8333 165.061 28.1C165.008 27.4525 165.395 27.5057 165.791 27.5471C166.14 27.5826 166.7 27.2987 166.626 28.0645C166.605 28.2685 166.444 28.5849 166.769 28.7062C167.108 28.8304 167.287 28.5583 167.517 28.3602C167.821 28.1 167.856 27.5441 168.387 27.5471C169.433 27.5559 170.523 27.3608 171.489 27.9019C172.061 28.2242 172.228 28.8511 172.24 29.4809C172.258 30.5394 172.222 31.6009 172.255 32.6595C172.27 33.1119 172.085 33.177 171.691 33.177C170.619 33.177 170.619 33.1947 170.619 32.1539C170.619 31.3171 170.607 30.4773 170.622 29.6405C170.634 29.0639 170.389 28.7742 169.796 28.783C169.373 28.789 168.953 28.789 168.53 28.783C168.11 28.7742 167.871 29.0432 167.543 29.2591C166.247 30.1166 166.682 31.3703 166.706 32.4821C166.721 33.3248 166.259 33.1296 165.785 33.1799C165.195 33.242 165.019 33.038 165.061 32.4614C165.112 31.7517 165.073 31.0332 165.073 30.3206L165.076 30.3147Z" fill="#0A04F3"/>
<path d="M132.964 19.1235C133.435 18.5026 133.486 17.6835 134.434 17.7841C134.815 17.8225 134.738 17.5209 134.711 17.3317C134.642 16.8349 134.851 16.6782 135.322 16.7462C135.515 16.7728 135.721 16.7699 135.915 16.7462C136.269 16.7048 136.427 16.8349 136.362 17.1927C136.263 17.7368 136.522 17.8609 137.02 17.8195C137.512 17.7781 138.012 17.8048 138.507 17.8136C138.626 17.8136 138.909 17.787 138.76 17.994C138.474 18.3961 138.391 19.0673 137.643 18.9757C137.422 18.9491 137.196 18.9875 136.975 18.9668C136.576 18.9313 136.373 19.0673 136.382 19.499C136.4 20.188 136.388 20.8769 136.388 21.5659C136.388 22.036 136.579 22.2815 137.092 22.2637C137.688 22.243 138.284 22.2903 138.877 22.2519C139.479 22.2134 139.327 22.6156 139.339 22.932C139.35 23.2513 139.416 23.5736 138.883 23.544C138.141 23.5026 137.396 23.5174 136.651 23.5322C135.441 23.5559 134.74 22.6333 134.77 21.6428C134.791 21.0041 134.743 20.3624 134.785 19.7238C134.815 19.2477 134.678 19.0526 134.177 19.1117C133.835 19.1501 133.486 19.1206 132.959 19.1206L132.964 19.1235Z" fill="#0A04F3"/>
<path d="M117.779 9.36587C118.363 8.81293 118.345 7.92291 119.299 8.0264C119.579 8.05597 119.543 7.81351 119.516 7.66567C119.388 7.00628 119.769 6.94419 120.27 6.99741C120.392 7.00924 120.52 7.01515 120.64 6.99741C121.054 6.93828 121.244 7.09499 121.167 7.51487C121.06 8.08258 121.367 8.15946 121.84 8.13285C122.43 8.09737 123.023 8.12398 123.673 8.12398C123.301 8.9726 122.877 9.60242 121.843 9.37178C121.399 9.2742 121.23 9.45457 121.262 9.92176C121.304 10.5575 121.304 11.2021 121.262 11.8378C121.227 12.3996 121.516 12.5711 122.001 12.5741C122.571 12.58 123.143 12.6125 123.709 12.5682C124.257 12.5268 124.159 12.8757 124.141 13.1743C124.123 13.4463 124.32 13.8426 123.739 13.8189C122.848 13.7834 121.954 13.8248 121.063 13.7982C120.392 13.7775 119.689 12.991 119.665 12.2429C119.638 11.483 119.623 10.7172 119.665 9.95724C119.695 9.45162 119.51 9.31264 119.039 9.36291C118.697 9.39839 118.348 9.36882 117.776 9.36882L117.779 9.36587Z" fill="#0A04F3"/>
<path d="M154.915 17.8337C154.569 18.7533 154.047 19.3594 153.043 19.0785C151.812 18.7326 151.211 19.7024 150.4 20.2347C150.325 20.2849 150.361 20.5156 150.361 20.6604C150.358 21.3997 150.317 22.1389 150.373 22.8751C150.418 23.4576 150.185 23.6587 149.664 23.5286C149.336 23.4458 148.734 23.8953 148.731 23.1058C148.731 21.5061 148.737 19.9064 148.725 18.3068C148.725 18.0141 148.83 17.9017 149.113 17.9342C149.616 17.9904 150.349 17.6208 150.248 18.6912C150.2 19.1731 150.844 19.0283 150.927 18.8804C151.818 17.2689 153.347 17.952 154.643 17.8159C154.715 17.8071 154.789 17.8248 154.915 17.8337Z" fill="#0A04F3"/>
<path d="M164.418 27.5413C164.158 28.7595 163.312 28.9931 162.349 28.7595C161.199 28.4816 160.773 29.5756 159.936 29.8595C159.882 29.8772 159.903 30.1344 159.9 30.2823C159.9 31.0688 159.876 31.8583 159.909 32.6448C159.927 33.0677 159.787 33.2214 159.37 33.1682C159.149 33.1416 158.923 33.1504 158.699 33.1682C158.389 33.1918 158.261 33.0943 158.264 32.7601C158.279 31.1605 158.276 29.5608 158.27 27.9582C158.267 27.2042 158.836 27.6241 159.14 27.559C159.417 27.4969 159.799 27.4171 159.772 27.97C159.76 28.2125 159.548 28.5969 159.951 28.7211C160.344 28.8423 160.547 28.5584 160.761 28.2568C161.134 27.7335 161.622 27.4466 162.335 27.5235C163.02 27.5974 163.72 27.5383 164.42 27.5383L164.418 27.5413Z" fill="#0A04F3"/>
<path d="M138.942 29.3183C138.942 28.1888 138.963 27.0593 138.933 25.9327C138.921 25.4655 139.032 25.294 139.541 25.3088C140.554 25.3384 140.557 25.3058 140.557 26.3141C140.557 28.4253 140.524 30.5365 140.575 32.6448C140.59 33.3337 140.212 33.248 139.794 33.2391C139.371 33.2302 138.891 33.381 138.927 32.63C138.981 31.5271 138.942 30.4212 138.942 29.3183Z" fill="#0A04F3"/>
<path d="M173.584 30.3533C173.584 29.5934 173.605 28.8334 173.575 28.0735C173.56 27.6714 173.661 27.5295 174.096 27.5295C175.199 27.5295 175.199 27.5058 175.199 28.6058C175.199 29.9541 175.166 31.3054 175.211 32.6508C175.241 33.4964 174.653 33.1771 174.257 33.2362C173.789 33.3072 173.527 33.2037 173.569 32.6301C173.622 31.8731 173.584 31.1102 173.584 30.3503V30.3533Z" fill="#0A04F3"/>
<path d="M174.299 26.5152C173.9 26.4797 173.405 26.7192 173.42 25.8972C173.435 25.1107 173.885 25.2615 174.329 25.2585C174.779 25.2585 175.232 25.1196 175.232 25.9061C175.232 26.7222 174.728 26.4768 174.302 26.5152H174.299Z" fill="#0A04F3"/>
</svg>
